<?xml version="1.0" encoding="utf-8"?>
<!-- Generator: Adobe Illustrator 26.0.1, SVG Export Plug-In . SVG Version: 6.00 Build 0)  -->
<svg version="1.1" id="Layer_1" xmlns="http://www.w3.org/2000/svg" xmlns:xlink="http://www.w3.org/1999/xlink" x="0px" y="0px"
	 viewBox="0 0 1000 1000" style="enable-background:new 0 0 1000 1000;" xml:space="preserve">
<style type="text/css">
	.st0{fill:url(#SVGID_1_);}
	.st1{fill:url(#SVGID_00000128450322035889391150000006679791528269502373_);}
</style>
<g>
	<linearGradient id="SVGID_1_" gradientUnits="userSpaceOnUse" x1="624.6856" y1="164.8618" x2="532.3202" y2="899.4556">
		<stop  offset="0" style="stop-color:#00A0FF"/>
		<stop  offset="1" style="stop-color:#000000"/>
	</linearGradient>
	<polygon class="st0" points="872.64,586.16 909.91,521.63 872.64,457.16 499.81,457.16 460.04,388.22 425.27,328.1 425.06,327.77 
		797.97,327.77 723.5,198.71 350.6,198.71 273.56,332.18 403.21,556.73 404.05,558.17 420.4,586.49 420.4,586.49 494.68,715.16 
		494.7,715.16 494.89,715.49 494.87,715.49 569.41,844.55 723.5,844.55 797.97,715.49 648.56,715.49 648.76,715.16 614.06,655.04 
		574.48,586.49 574.47,586.49 574.28,586.16 	"/>
	
		<linearGradient id="SVGID_00000090979606311529494680000000143891296841961907_" gradientUnits="userSpaceOnUse" x1="398.1397" y1="136.3767" x2="305.7743" y2="870.9705">
		<stop  offset="0" style="stop-color:#00A0FF"/>
		<stop  offset="1" style="stop-color:#000000"/>
	</linearGradient>
	<polygon style="fill:url(#SVGID_00000090979606311529494680000000143891296841961907_);" points="164.2,521.64 350.61,844.54 
		403.23,844.54 494.6,844.54 236.18,396.95 	"/>
</g>
</svg>
